<svg width="21" height="22" viewBox="0 0 21 22" fill="none" xmlns="http://www.w3.org/2000/svg">
<path d="M9.62549 17.3438H4.37549C2.99561 17.3438 2.40674 16.7549 2.40674 15.375V8.15625H16.8442V10.125C16.8442 10.4873 17.1382 10.7812 17.5005 10.7812C17.8627 10.7812 18.1567 10.4873 18.1567 10.125V6.1875C18.1567 4.07175 16.9912 2.90625 14.8755 2.90625H13.7817V2.25C13.7817 1.88775 13.4877 1.59375 13.1255 1.59375C12.7632 1.59375 12.4692 1.88775 12.4692 2.25V2.90625H6.78174V2.25C6.78174 1.88775 6.48774 1.59375 6.12549 1.59375C5.76324 1.59375 5.46924 1.88775 5.46924 2.25V2.90625H4.37549C2.25974 2.90625 1.09424 4.07175 1.09424 6.1875V15.375C1.09424 17.4908 2.25974 18.6562 4.37549 18.6562H9.62549C9.98774 18.6562 10.2817 18.3622 10.2817 18C10.2817 17.6378 9.98774 17.3438 9.62549 17.3438ZM4.37549 4.21875H5.46924V4.875C5.46924 5.23725 5.76324 5.53125 6.12549 5.53125C6.48774 5.53125 6.78174 5.23725 6.78174 4.875V4.21875H12.4692V4.875C12.4692 5.23725 12.7632 5.53125 13.1255 5.53125C13.4877 5.53125 13.7817 5.23725 13.7817 4.875V4.21875H14.8755C16.2554 4.21875 16.8442 4.80763 16.8442 6.1875V6.84375H2.40674V6.1875C2.40674 4.80763 2.99561 4.21875 4.37549 4.21875ZM7.01801 11C7.01801 11.483 6.62688 11.875 6.14301 11.875C5.66001 11.875 5.26352 11.483 5.26352 11C5.26352 10.517 5.65125 10.125 6.13425 10.125H6.14301C6.62601 10.125 7.01801 10.517 7.01801 11ZM10.518 11C10.518 11.483 10.1269 11.875 9.64301 11.875C9.16001 11.875 8.76352 11.483 8.76352 11C8.76352 10.517 9.15125 10.125 9.63425 10.125H9.64301C10.126 10.125 10.518 10.517 10.518 11ZM15.7505 12.0938C13.4589 12.0938 11.5942 13.9584 11.5942 16.25C11.5942 18.5416 13.4589 20.4062 15.7505 20.4062C18.0421 20.4062 19.9067 18.5416 19.9067 16.25C19.9067 13.9584 18.0421 12.0938 15.7505 12.0938ZM15.7505 19.0938C14.1825 19.0938 12.9067 17.818 12.9067 16.25C12.9067 14.682 14.1825 13.4062 15.7505 13.4062C17.3185 13.4062 18.5942 14.682 18.5942 16.25C18.5942 17.818 17.3185 19.0938 15.7505 19.0938ZM7.01801 14.5C7.01801 14.983 6.62688 15.375 6.14301 15.375C5.66001 15.375 5.26352 14.983 5.26352 14.5C5.26352 14.017 5.65125 13.625 6.13425 13.625H6.14301C6.62601 13.625 7.01801 14.017 7.01801 14.5ZM17.1523 16.7234C17.4087 16.9789 17.4087 17.3954 17.1523 17.6518C17.0245 17.7795 16.8565 17.8443 16.6885 17.8443C16.5205 17.8443 16.3525 17.7804 16.2247 17.6518L15.2876 16.7146C15.1642 16.5913 15.0951 16.425 15.0951 16.2509V14.9384C15.0951 14.5761 15.3891 14.2821 15.7513 14.2821C16.1136 14.2821 16.4076 14.5761 16.4076 14.9384V15.9787L17.1523 16.7234Z" fill="#3A3B40"/>
</svg>
