<svg width="11" height="7" viewBox="0 0 11 7" fill="none" xmlns="http://www.w3.org/2000/svg">
<rect width="11" height="7" fill="#CCCCCC"/>
<g clip-path="url(#clip0_580_165)">
<rect x="-245" y="-290" width="1440" height="900" rx="8" fill="white"/>
<rect x="-245" y="-115" width="1440" height="725" fill="#F6F9FF"/>
<rect x="-245" y="-115" width="1440" height="725" fill="white"/>
<g filter="url(#filter0_d_580_165)">
<mask id="path-4-inside-1_580_165" fill="white">
<path d="M-217 -123.985H41V610H-217V-123.985Z"/>
</mask>
<path d="M-217 -123.985H41V610H-217V-123.985Z" fill="white"/>
<path d="M40 -123.985V610H42V-123.985H40Z" fill="#ECECEC" mask="url(#path-4-inside-1_580_165)"/>
</g>
<rect x="-201.5" y="-22.5" width="227" height="195" rx="3.5" stroke="#CAE3F6"/>
<path d="M1.85449 1.08692L1.85449 1.08692L1.8765 1.10969C1.87664 1.10983 1.87677 1.10997 1.87691 1.1101C2.0015 1.23711 2.12609 1.36412 2.25069 1.49113C3.24808 2.50784 4.24564 3.52473 5.24219 4.54265C5.26089 4.56175 5.28522 4.59537 5.30205 4.61864C5.30314 4.62014 5.30419 4.6216 5.30521 4.62301L5.18374 4.711M1.85449 1.08692L9.96027 0.987657C9.84536 0.885886 9.7062 0.836545 9.55929 0.853151C9.41586 0.869363 9.28338 0.946197 9.1707 1.06091L9.17069 1.06091C8.163 2.08682 7.08639 3.18496 5.78251 4.51648L5.78157 4.51745C5.75864 4.54129 5.73289 4.57565 5.70803 4.60883C5.70646 4.61093 5.70488 4.61303 5.70331 4.61512C5.70152 4.61752 5.69972 4.61992 5.6979 4.62234C5.67838 4.64838 5.65756 4.67617 5.63285 4.70766L5.49915 4.87803L5.36711 4.70623L5.36707 4.70618C5.34779 4.68111 5.33186 4.65936 5.31656 4.63847C5.31253 4.63298 5.30856 4.62755 5.30457 4.62213L5.18374 4.711M1.85449 1.08692L1.85376 1.08617M1.85449 1.08692L1.85376 1.08617M5.18374 4.711C5.18743 4.71602 5.19121 4.72119 5.19511 4.72651C5.21051 4.74754 5.22771 4.77102 5.24817 4.79763L2.14428 1.59686C3.14145 2.61334 4.13873 3.62995 5.135 4.64758C5.14494 4.65772 5.1629 4.68224 5.18374 4.711ZM1.85376 1.08617C1.85145 1.08381 1.84911 1.08143 1.84674 1.07901C1.81394 1.04553 1.77584 1.00663 1.73895 0.976163C1.51451 0.790741 1.19358 0.814911 0.996932 1.02924M1.85376 1.08617L0.996932 1.02924M8.29938 3.52529L8.29931 3.52536L7.87357 3.95982L7.87353 3.95986C7.7156 4.12089 7.5577 4.28193 7.39979 4.44297C6.92527 4.9269 6.45075 5.41082 5.97588 5.89455L5.97588 5.89456C5.83182 6.04128 5.67834 6.15063 5.49835 6.15C5.31876 6.14936 5.16531 6.03933 5.02086 5.89188L8.29938 3.52529ZM8.29938 3.52529C8.45847 3.36275 8.61757 3.20083 8.77712 3.03847L8.77747 3.03811C8.77748 3.03811 8.77748 3.0381 8.77749 3.03809M8.29938 3.52529L8.77749 3.03809M0.996932 1.02924C0.903051 1.13144 0.850083 1.25495 0.849999 1.39224L0.996932 1.02924ZM8.77749 3.03809C9.1705 2.63833 9.57734 2.22413 9.97431 1.81443L8.77749 3.03809ZM4.35468 5.21258L5.0208 5.89182L1.05448 1.84641C2.15413 2.96902 3.25441 4.09097 4.35467 5.21257C4.35467 5.21257 4.35468 5.21258 4.35468 5.21258ZM10.15 1.40009C10.15 1.24071 10.0804 1.09401 9.96033 0.987709L9.97436 1.81438C10.0837 1.70163 10.15 1.55816 10.15 1.40009ZM0.849999 1.39257C0.850103 1.55963 0.930099 1.71955 1.05442 1.84634L0.849999 1.39257Z" fill="#9D9FA3" stroke="#9D9FA3" stroke-width="0.3"/>
</g>
<defs>
<filter id="filter0_d_580_165" x="-230" y="-138.985" width="288" height="763.985" filterUnits="userSpaceOnUse" color-interpolation-filters="sRGB">
<feFlood flood-opacity="0" result="BackgroundImageFix"/>
<feColorMatrix in="SourceAlpha" type="matrix" values="0 0 0 0 0 0 0 0 0 0 0 0 0 0 0 0 0 0 127 0" result="hardAlpha"/>
<feOffset dx="2"/>
<feGaussianBlur stdDeviation="7.5"/>
<feComposite in2="hardAlpha" operator="out"/>
<feColorMatrix type="matrix" values="0 0 0 0 0.387031 0 0 0 0 0.403741 0 0 0 0 0.419167 0 0 0 0.1 0"/>
<feBlend mode="normal" in2="BackgroundImageFix" result="effect1_dropShadow_580_165"/>
<feBlend mode="normal" in="SourceGraphic" in2="effect1_dropShadow_580_165" result="shape"/>
</filter>
<clipPath id="clip0_580_165">
<rect x="-245" y="-290" width="1440" height="900" rx="8" fill="white"/>
</clipPath>
</defs>
</svg>
