<svg width="18" height="18" viewBox="0 0 18 18" fill="none" xmlns="http://www.w3.org/2000/svg">
<path d="M12 16.3125H4.5C2.6865 16.3125 1.6875 15.3135 1.6875 13.5V6.00004C1.6875 4.18654 2.6865 3.18754 4.5 3.18754H6.75C7.0605 3.18754 7.3125 3.43954 7.3125 3.75004C7.3125 4.06054 7.0605 4.31254 6.75 4.31254H4.5C3.31725 4.31254 2.8125 4.81729 2.8125 6.00004V13.5C2.8125 14.6828 3.31725 15.1875 4.5 15.1875H12C13.1827 15.1875 13.6875 14.6828 13.6875 13.5V11.25C13.6875 10.9395 13.9395 10.6875 14.25 10.6875C14.5605 10.6875 14.8125 10.9395 14.8125 11.25V13.5C14.8125 15.3135 13.8135 16.3125 12 16.3125ZM15.435 3.77254L14.2275 2.56505C13.8 2.14505 13.1175 2.14504 12.69 2.57254L11.6775 3.59255L14.4075 6.32254L15.4275 5.31003C15.855 4.88253 15.855 4.20004 15.435 3.77254ZM10.8825 4.38755L6 9.29255V12H8.70749L13.6125 7.11754L10.8825 4.38755Z" fill="white"/>
</svg>
