<svg width="22" height="22" viewBox="0 0 22 22" fill="none" xmlns="http://www.w3.org/2000/svg">
<path d="M19.3335 5.52753L16.4725 2.66652C16.0884 2.28244 15.5567 2.0625 15.014 2.0625H5.5C3.2835 2.0625 2.0625 3.2835 2.0625 5.5V16.5C2.0625 18.7165 3.2835 19.9375 5.5 19.9375H16.5C18.7165 19.9375 19.9375 18.7165 19.9375 16.5V6.986C19.9375 6.44334 19.7176 5.91161 19.3335 5.52753ZM14.8958 18.5625H7.10417V13.2917C7.10417 12.7517 7.25175 12.6042 7.79167 12.6042H14.2083C14.7483 12.6042 14.8958 12.7517 14.8958 13.2917V18.5625ZM18.5625 16.5C18.5625 17.9456 17.9456 18.5625 16.5 18.5625H16.2708V13.2917C16.2708 12.0001 15.4999 11.2292 14.2083 11.2292H7.79167C6.50008 11.2292 5.72917 12.0001 5.72917 13.2917V18.5625H5.5C4.05442 18.5625 3.4375 17.9456 3.4375 16.5V5.5C3.4375 4.05442 4.05442 3.4375 5.5 3.4375H15.014C15.1946 3.4375 15.3724 3.51081 15.4999 3.63914L18.3609 6.50014C18.4892 6.62848 18.5625 6.80542 18.5625 6.986V16.5ZM13.9792 7.33333C13.9792 7.71283 13.6712 8.02083 13.2917 8.02083H8.70833C8.32883 8.02083 8.02083 7.71283 8.02083 7.33333C8.02083 6.95383 8.32883 6.64583 8.70833 6.64583H13.2917C13.6712 6.64583 13.9792 6.95383 13.9792 7.33333Z" fill="#25314C"/>
</svg>
