<svg width="15" height="15" viewBox="0 0 15 15" fill="none" xmlns="http://www.w3.org/2000/svg">
<g id="widgets">
<path id="combo shape" fill-rule="evenodd" clip-rule="evenodd" d="M2.41666 0.416504C1.31209 0.416504 0.416656 1.31193 0.416656 2.4165V4.08317C0.416656 5.18774 1.31209 6.08317 2.41666 6.08317H4.08332C5.18789 6.08317 6.08332 5.18774 6.08332 4.08317V2.4165C6.08332 1.31193 5.18789 0.416504 4.08332 0.416504H2.41666ZM2.41666 8.9165C1.31209 8.9165 0.416656 9.81193 0.416656 10.9165V12.5832C0.416656 13.6877 1.31209 14.5832 2.41666 14.5832H4.08332C5.18789 14.5832 6.08332 13.6877 6.08332 12.5832V10.9165C6.08332 9.81193 5.18789 8.9165 4.08332 8.9165H2.41666ZM8.91666 10.9165C8.91666 9.81193 9.81209 8.9165 10.9167 8.9165H12.5833C13.6879 8.9165 14.5833 9.81193 14.5833 10.9165V12.5832C14.5833 13.6877 13.6879 14.5832 12.5833 14.5832H10.9167C9.81209 14.5832 8.91666 13.6877 8.91666 12.5832V10.9165ZM8.69199 2.30082C7.91094 3.08187 7.91094 4.3482 8.69199 5.12925L9.8705 6.30776C10.6516 7.08881 11.9179 7.08881 12.6989 6.30776L13.8774 5.12925C14.6585 4.3482 14.6585 3.08187 13.8774 2.30082L12.6989 1.12231C11.9179 0.34126 10.6516 0.341259 9.87051 1.12231L8.69199 2.30082Z" fill="white"/>
</g>
</svg>
