<svg width="24" height="24" viewBox="0 0 24 16" fill="none" xmlns="http://www.w3.org/2000/svg">
<path fill-rule="evenodd" clip-rule="evenodd" d="M14.5 2.66663C14.5 2.39048 14.2761 2.16663 14 2.16663C13.7239 2.16663 13.5 2.39048 13.5 2.66663V13.3333C13.5 13.6094 13.7239 13.8333 14 13.8333C14.2761 13.8333 14.5 13.6094 14.5 13.3333V2.66663ZM10.5 5.33329C10.5 5.05715 10.2761 4.83329 10 4.83329C9.72386 4.83329 9.5 5.05715 9.5 5.33329V13.3333C9.5 13.6094 9.72386 13.8333 10 13.8333C10.2761 13.8333 10.5 13.6094 10.5 13.3333V5.33329ZM6 7.49996C6.27614 7.49996 6.5 7.72382 6.5 7.99996V13.3333C6.5 13.6094 6.27614 13.8333 6 13.8333C5.72386 13.8333 5.5 13.6094 5.5 13.3333V7.99996C5.5 7.72382 5.72386 7.49996 6 7.49996ZM2.5 10.6666C2.5 10.3905 2.27614 10.1666 2 10.1666C1.72386 10.1666 1.5 10.3905 1.5 10.6666V13.3333C1.5 13.6094 1.72386 13.8333 2 13.8333C2.27614 13.8333 2.5 13.6094 2.5 13.3333V10.6666Z" fill="#65AEE5"/>
<path d="M14 2.31663C14.1933 2.31663 14.35 2.47333 14.35 2.66663H14.65C14.65 2.30764 14.359 2.01663 14 2.01663V2.31663ZM13.65 2.66663C13.65 2.47333 13.8067 2.31663 14 2.31663V2.01663C13.641 2.01663 13.35 2.30764 13.35 2.66663H13.65ZM13.65 13.3333V2.66663H13.35V13.3333H13.65ZM14 13.6833C13.8067 13.6833 13.65 13.5266 13.65 13.3333H13.35C13.35 13.6923 13.641 13.9833 14 13.9833V13.6833ZM14.35 13.3333C14.35 13.5266 14.1933 13.6833 14 13.6833V13.9833C14.359 13.9833 14.65 13.6923 14.65 13.3333H14.35ZM14.35 2.66663V13.3333H14.65V2.66663H14.35ZM10 4.98329C10.1933 4.98329 10.35 5.13999 10.35 5.33329H10.65C10.65 4.97431 10.359 4.68329 10 4.68329V4.98329ZM9.65 5.33329C9.65 5.13999 9.8067 4.98329 10 4.98329V4.68329C9.64102 4.68329 9.35 4.97431 9.35 5.33329H9.65ZM9.65 13.3333V5.33329H9.35V13.3333H9.65ZM10 13.6833C9.8067 13.6833 9.65 13.5266 9.65 13.3333H9.35C9.35 13.6923 9.64102 13.9833 10 13.9833V13.6833ZM10.35 13.3333C10.35 13.5266 10.1933 13.6833 10 13.6833V13.9833C10.359 13.9833 10.65 13.6923 10.65 13.3333H10.35ZM10.35 5.33329V13.3333H10.65V5.33329H10.35ZM6.65 7.99996C6.65 7.64097 6.35899 7.34996 6 7.34996V7.64996C6.1933 7.64996 6.35 7.80666 6.35 7.99996H6.65ZM6.65 13.3333V7.99996H6.35V13.3333H6.65ZM6 13.9833C6.35899 13.9833 6.65 13.6923 6.65 13.3333H6.35C6.35 13.5266 6.1933 13.6833 6 13.6833V13.9833ZM5.35 13.3333C5.35 13.6923 5.64101 13.9833 6 13.9833V13.6833C5.8067 13.6833 5.65 13.5266 5.65 13.3333H5.35ZM5.35 7.99996V13.3333H5.65V7.99996H5.35ZM6 7.34996C5.64101 7.34996 5.35 7.64097 5.35 7.99996H5.65C5.65 7.80666 5.8067 7.64996 6 7.64996V7.34996ZM2 10.3166C2.1933 10.3166 2.35 10.4733 2.35 10.6666H2.65C2.65 10.3076 2.35899 10.0166 2 10.0166V10.3166ZM1.65 10.6666C1.65 10.4733 1.8067 10.3166 2 10.3166V10.0166C1.64101 10.0166 1.35 10.3076 1.35 10.6666H1.65ZM1.65 13.3333V10.6666H1.35V13.3333H1.65ZM2 13.6833C1.8067 13.6833 1.65 13.5266 1.65 13.3333H1.35C1.35 13.6923 1.64101 13.9833 2 13.9833V13.6833ZM2.35 13.3333C2.35 13.5266 2.1933 13.6833 2 13.6833V13.9833C2.35899 13.9833 2.65 13.6923 2.65 13.3333H2.35ZM2.35 10.6666V13.3333H2.65V10.6666H2.35Z" fill="#65AEE5"/>
</svg>
