<svg width="20" height="20" viewBox="0 0 20 20" fill="none" xmlns="http://www.w3.org/2000/svg">
<path d="M17.2921 3.33337V7.50004C17.2921 7.84504 17.0121 8.12504 16.6671 8.12504C16.3221 8.12504 16.0421 7.84504 16.0421 7.50004V4.84257L9.60876 11.2759C9.4871 11.3975 9.32707 11.4592 9.16707 11.4592C9.00707 11.4592 8.84705 11.3984 8.72538 11.2759C8.48122 11.0317 8.48122 10.6358 8.72538 10.3917L15.1587 3.95837H12.5004C12.1554 3.95837 11.8754 3.67837 11.8754 3.33337C11.8754 2.98837 12.1554 2.70837 12.5004 2.70837H16.6671C16.7487 2.70837 16.8297 2.72513 16.9063 2.7568C17.0588 2.82013 17.1805 2.9418 17.2447 3.09513C17.2755 3.17097 17.2921 3.25171 17.2921 3.33337ZM16.6671 10.2084C16.3221 10.2084 16.0421 10.4884 16.0421 10.8334V14.1667C16.0421 15.4809 15.4812 16.0417 14.1671 16.0417H5.83374C4.51957 16.0417 3.95874 15.4809 3.95874 14.1667V5.83337C3.95874 4.51921 4.51957 3.95837 5.83374 3.95837H9.16707C9.51207 3.95837 9.79207 3.67837 9.79207 3.33337C9.79207 2.98837 9.51207 2.70837 9.16707 2.70837H5.83374C3.81874 2.70837 2.70874 3.81837 2.70874 5.83337V14.1667C2.70874 16.1817 3.81874 17.2917 5.83374 17.2917H14.1671C16.1821 17.2917 17.2921 16.1817 17.2921 14.1667V10.8334C17.2921 10.4884 17.0121 10.2084 16.6671 10.2084Z" fill="#25314C"/>
</svg>
