<svg width="13" height="13" viewBox="0 0 13 13" fill="none" xmlns="http://www.w3.org/2000/svg">
<g id="Group 632665">
<rect id="Rectangle 3399" width="13" height="13" rx="3" fill="white"/>
<path id="Vector" d="M5.06123 9.3444L5.06123 9.3444L5.07934 9.32819C5.18094 9.23591 5.28255 9.14361 5.38416 9.05132C6.19761 8.31244 7.01121 7.57342 7.82563 6.83516L5.06123 9.3444ZM5.06123 9.3444L5.06052 9.34504M5.06123 9.3444L5.06052 9.34504M5.06052 9.34504C5.05859 9.3468 5.05662 9.34859 5.05462 9.3504C5.02806 9.37448 4.99609 9.40347 4.97086 9.43176L5.06052 9.34504ZM7.02863 4.57049L7.0287 4.57055L7.37626 4.88592L7.3763 4.88595C7.50523 5.00303 7.63417 5.12009 7.76311 5.23716C8.15015 5.58856 8.53718 5.93996 8.92406 6.29162L8.92407 6.29163C9.04081 6.39776 9.13806 6.51907 9.1375 6.66794C9.13693 6.81639 9.03922 6.93757 8.92192 7.04397L7.02863 4.57049ZM7.02863 4.57049C6.89855 4.45261 6.76897 4.33471 6.63901 4.21647L6.63892 4.21638L7.02863 4.57049ZM5.01557 10.0252C5.10074 10.0976 5.20236 10.1374 5.31379 10.1374L5.01557 10.0252ZM5.31406 10.1374C5.4498 10.1373 5.58075 10.0772 5.68548 9.98208C6.58359 9.16751 7.48117 8.35247 8.37847 7.53745C8.37847 7.53744 8.37848 7.53744 8.37848 7.53743L8.92186 7.04402L5.31406 10.1374ZM7.89146 6.54405C7.9123 6.55851 7.93436 6.57382 7.95937 6.592L4.98059 3.34131C4.89515 3.43064 4.85049 3.54277 4.86527 3.66389C4.87954 3.78073 4.94648 3.88467 5.0403 3.97L5.0403 3.97001C5.86104 4.71646 6.73956 5.51395 7.80479 6.4798L7.80478 6.4798L7.8057 6.48062C7.82572 6.49844 7.85414 6.51816 7.88024 6.53626C7.88206 6.53753 7.88387 6.53878 7.88567 6.54003C7.88759 6.54137 7.88952 6.54271 7.89146 6.54405ZM5.32007 3.19575C5.19099 3.19575 5.06993 3.24786 4.98064 3.34126L5.65982 3.32969C5.56608 3.24554 5.44828 3.19575 5.32007 3.19575Z" fill="#B1B1B7" stroke="#B1B1B7" stroke-width="0.275"/>
</g>
</svg>
