<svg width="22" height="22" viewBox="0 0 22 22" fill="none" xmlns="http://www.w3.org/2000/svg">
<g opacity="0.8">
<path d="M15.8327 14.921L15.5367 15.2721L15.8614 15.5968L19.3823 19.1177C19.456 19.1914 19.4551 19.3097 19.3829 19.3817L19.3811 19.3835C19.3456 19.4192 19.2993 19.4375 19.25 19.4375C19.2022 19.4375 19.1547 19.4193 19.1177 19.3823L15.5968 15.8614L15.2721 15.5366L14.921 15.8326C13.611 16.9371 11.9245 17.6042 10.0833 17.6042C5.93656 17.6042 2.5625 14.2301 2.5625 10.0833C2.5625 5.93656 5.93656 2.5625 10.0833 2.5625C14.2301 2.5625 17.6042 5.93656 17.6042 10.0833C17.6042 11.9245 16.9371 13.611 15.8327 14.921ZM10.0833 2.9375C6.14236 2.9375 2.9375 6.14236 2.9375 10.0833C2.9375 14.0243 6.14236 17.2292 10.0833 17.2292C14.0243 17.2292 17.2292 14.0243 17.2292 10.0833C17.2292 6.14236 14.0243 2.9375 10.0833 2.9375Z" fill="black" stroke="black"/>
</g>
</svg>
