<svg width="18" height="18" viewBox="0 0 18 18" fill="none" xmlns="http://www.w3.org/2000/svg">
<path id="chart-bar-square" d="M13.6877 1.0835H4.31266C2.20016 1.0835 1.0835 2.20016 1.0835 4.31266V13.6877C1.0835 15.8002 2.20016 16.9168 4.31266 16.9168H13.6877C15.8002 16.9168 16.9168 15.8002 16.9168 13.6877V4.31266C16.9168 2.20016 15.8002 1.0835 13.6877 1.0835ZM16.0835 13.6877C16.0835 15.3218 15.3227 16.0835 13.6877 16.0835H4.31266C2.67766 16.0835 1.91683 15.3218 1.91683 13.6877V4.31266C1.91683 2.6785 2.67766 1.91683 4.31266 1.91683H13.6877C15.3227 1.91683 16.0835 2.6785 16.0835 4.31266V13.6877ZM11.5002 4.41683C10.441 4.41683 9.8335 5.02433 9.8335 6.0835V11.9168C9.8335 12.976 10.441 13.5835 11.5002 13.5835C12.5593 13.5835 13.1668 12.976 13.1668 11.9168V6.0835C13.1668 5.02433 12.5593 4.41683 11.5002 4.41683ZM12.3335 11.9168C12.3335 12.5168 12.1002 12.7502 11.5002 12.7502C10.9002 12.7502 10.6668 12.5168 10.6668 11.9168V6.0835C10.6668 5.4835 10.9002 5.25016 11.5002 5.25016C12.1002 5.25016 12.3335 5.4835 12.3335 6.0835V11.9168ZM6.50016 7.75016C5.441 7.75016 4.8335 8.35766 4.8335 9.41683V11.9168C4.8335 12.976 5.441 13.5835 6.50016 13.5835C7.55933 13.5835 8.16683 12.976 8.16683 11.9168V9.41683C8.16683 8.35766 7.55933 7.75016 6.50016 7.75016ZM7.3335 11.9168C7.3335 12.5168 7.10016 12.7502 6.50016 12.7502C5.90016 12.7502 5.66683 12.5168 5.66683 11.9168V9.41683C5.66683 8.81683 5.90016 8.5835 6.50016 8.5835C7.10016 8.5835 7.3335 8.81683 7.3335 9.41683V11.9168Z" fill="#0078D4" stroke="#0078D4" stroke-width="0.4"/>
</svg>
